<?xml version="1.0" encoding="UTF-8" standalone="no"?>
<!DOCTYPE svg PUBLIC "-//W3C//DTD SVG 1.1//EN"
 "http://www.w3.org/Graphics/SVG/1.1/DTD/svg11.dtd">
<!-- Generated by graphviz version 2.43.0 (0)
 -->
<!-- Title: examples/ArduinoSerialAdapter.h Pages: 1 -->
<svg width="187pt" height="137pt"
 viewBox="0.00 0.00 187.00 137.00" xmlns="http://www.w3.org/2000/svg" xmlns:xlink="http://www.w3.org/1999/xlink">
<g id="graph0" class="graph" transform="scale(1 1) rotate(0) translate(4 133)">
<title>examples/ArduinoSerialAdapter.h</title>
<!-- Node1 -->
<g id="Node000001" class="node">
<title>Node1</title>
<g id="a_Node000001"><a xlink:title=" ">
<polygon fill="#999999" stroke="#666666" points="179,-129 0,-129 0,-110 179,-110 179,-129"/>
<text text-anchor="middle" x="89.5" y="-117" font-family="Helvetica,sans-Serif" font-size="10.00">examples/ArduinoSerialAdapter.h</text>
</a>
</g>
</g>
<!-- Node2 -->
<g id="Node000002" class="node">
<title>Node2</title>
<g id="a_Node000002"><a xlink:title=" ">
<polygon fill="#e0e0e0" stroke="#999999" points="121,-19 58,-19 58,0 121,0 121,-19"/>
<text text-anchor="middle" x="89.5" y="-7" font-family="Helvetica,sans-Serif" font-size="10.00">Arduino.h</text>
</a>
</g>
</g>
<!-- Node1&#45;&gt;Node2 -->
<g id="edge1_Node000001_Node000002" class="edge">
<title>Node1&#45;&gt;Node2</title>
<g id="a_edge1_Node000001_Node000002"><a xlink:title=" ">
<path fill="none" stroke="#63b8ff" d="M85.39,-109.88C81.44,-101.09 75.76,-86.94 73.5,-74 70.79,-58.43 75.74,-41.03 80.84,-28.39"/>
<polygon fill="#63b8ff" stroke="#63b8ff" points="84.13,-29.6 84.98,-19.04 77.73,-26.76 84.13,-29.6"/>
</a>
</g>
</g>
<!-- Node3 -->
<g id="Node000003" class="node">
<title>Node3</title>
<g id="a_Node000003"><a xlink:href="SerialDriver_8h.html" target="_top" xlink:title=" ">
<polygon fill="white" stroke="#666666" points="166,-74 83,-74 83,-55 166,-55 166,-74"/>
<text text-anchor="middle" x="124.5" y="-62" font-family="Helvetica,sans-Serif" font-size="10.00">SerialDriver.h</text>
</a>
</g>
</g>
<!-- Node1&#45;&gt;Node3 -->
<g id="edge2_Node000001_Node000003" class="edge">
<title>Node1&#45;&gt;Node3</title>
<g id="a_edge2_Node000001_Node000003"><a xlink:title=" ">
<path fill="none" stroke="#63b8ff" d="M95.28,-109.75C100.12,-102.42 107.18,-91.73 113.14,-82.7"/>
<polygon fill="#63b8ff" stroke="#63b8ff" points="116.24,-84.36 118.83,-74.09 110.4,-80.5 116.24,-84.36"/>
</a>
</g>
</g>
<!-- Node3&#45;&gt;Node2 -->
<g id="edge3_Node000003_Node000002" class="edge">
<title>Node3&#45;&gt;Node2</title>
<g id="a_edge3_Node000003_Node000002"><a xlink:title=" ">
<path fill="none" stroke="#63b8ff" d="M118.72,-54.75C113.88,-47.42 106.82,-36.73 100.86,-27.7"/>
<polygon fill="#63b8ff" stroke="#63b8ff" points="103.6,-25.5 95.17,-19.09 97.76,-29.36 103.6,-25.5"/>
</a>
</g>
</g>
</g>
</svg>
