<?xml version="1.0" encoding="UTF-8" standalone="no"?>
<!DOCTYPE svg PUBLIC "-//W3C//DTD SVG 1.1//EN"
 "http://www.w3.org/Graphics/SVG/1.1/DTD/svg11.dtd">
<!-- Generated by graphviz version 2.43.0 (0)
 -->
<!-- Title: examples/CardHandler.cpp Pages: 1 -->
<svg width="168pt" height="192pt"
 viewBox="0.00 0.00 167.70 192.00" xmlns="http://www.w3.org/2000/svg" xmlns:xlink="http://www.w3.org/1999/xlink">
<g id="graph0" class="graph" transform="scale(1 1) rotate(0) translate(4 188)">
<title>examples/CardHandler.cpp</title>
<!-- Node1 -->
<g id="Node000001" class="node">
<title>Node1</title>
<g id="a_Node000001"><a xlink:title=" ">
<polygon fill="#999999" stroke="#666666" points="159.7,-184 11.7,-184 11.7,-165 159.7,-165 159.7,-184"/>
<text text-anchor="middle" x="85.7" y="-172" font-family="Helvetica,sans-Serif" font-size="10.00">examples/CardHandler.cpp</text>
</a>
</g>
</g>
<!-- Node2 -->
<g id="Node000002" class="node">
<title>Node2</title>
<g id="a_Node000002"><a xlink:href="CardHandler_8h.html" target="_top" xlink:title=" ">
<polygon fill="white" stroke="#666666" points="93.7,-129 7.7,-129 7.7,-110 93.7,-110 93.7,-129"/>
<text text-anchor="middle" x="50.7" y="-117" font-family="Helvetica,sans-Serif" font-size="10.00">CardHandler.h</text>
</a>
</g>
</g>
<!-- Node1&#45;&gt;Node2 -->
<g id="edge1_Node000001_Node000002" class="edge">
<title>Node1&#45;&gt;Node2</title>
<g id="a_edge1_Node000001_Node000002"><a xlink:title=" ">
<path fill="none" stroke="#63b8ff" d="M79.92,-164.75C75.08,-157.42 68.02,-146.73 62.06,-137.7"/>
<polygon fill="#63b8ff" stroke="#63b8ff" points="64.8,-135.5 56.37,-129.09 58.96,-139.36 64.8,-135.5"/>
</a>
</g>
</g>
<!-- Node3 -->
<g id="Node000003" class="node">
<title>Node3</title>
<g id="a_Node000003"><a xlink:title=" ">
<polygon fill="#e0e0e0" stroke="#999999" points="84.2,-19 21.2,-19 21.2,0 84.2,0 84.2,-19"/>
<text text-anchor="middle" x="52.7" y="-7" font-family="Helvetica,sans-Serif" font-size="10.00">Arduino.h</text>
</a>
</g>
</g>
<!-- Node1&#45;&gt;Node3 -->
<g id="edge5_Node000001_Node000003" class="edge">
<title>Node1&#45;&gt;Node3</title>
<g id="a_edge5_Node000001_Node000003"><a xlink:title=" ">
<path fill="none" stroke="#63b8ff" d="M89.98,-164.7C99.24,-144.38 118.94,-93 101.7,-55 96.27,-43.02 85.89,-32.86 76.09,-25.28"/>
<polygon fill="#63b8ff" stroke="#63b8ff" points="77.92,-22.29 67.75,-19.31 73.84,-27.98 77.92,-22.29"/>
</a>
</g>
</g>
<!-- Node2&#45;&gt;Node3 -->
<g id="edge2_Node000002_Node000003" class="edge">
<title>Node2&#45;&gt;Node3</title>
<g id="a_edge2_Node000002_Node000003"><a xlink:title=" ">
<path fill="none" stroke="#63b8ff" d="M36.05,-109.88C18.57,-98.39 -7.14,-76.94 2.7,-55 8.2,-42.74 18.93,-32.48 29.05,-24.91"/>
<polygon fill="#63b8ff" stroke="#63b8ff" points="31.05,-27.78 37.27,-19.2 27.06,-22.03 31.05,-27.78"/>
</a>
</g>
</g>
<!-- Node4 -->
<g id="Node000004" class="node">
<title>Node4</title>
<g id="a_Node000004"><a xlink:href="PN532Base_8h.html" target="_top" xlink:title=" ">
<polygon fill="white" stroke="#666666" points="93.2,-74 12.2,-74 12.2,-55 93.2,-55 93.2,-74"/>
<text text-anchor="middle" x="52.7" y="-62" font-family="Helvetica,sans-Serif" font-size="10.00">PN532Base.h</text>
</a>
</g>
</g>
<!-- Node2&#45;&gt;Node4 -->
<g id="edge3_Node000002_Node000004" class="edge">
<title>Node2&#45;&gt;Node4</title>
<g id="a_edge3_Node000002_Node000004"><a xlink:title=" ">
<path fill="none" stroke="#63b8ff" d="M51.03,-109.75C51.29,-102.8 51.67,-92.85 52,-84.13"/>
<polygon fill="#63b8ff" stroke="#63b8ff" points="55.5,-84.21 52.38,-74.09 48.5,-83.95 55.5,-84.21"/>
</a>
</g>
</g>
<!-- Node4&#45;&gt;Node3 -->
<g id="edge4_Node000004_Node000003" class="edge">
<title>Node4&#45;&gt;Node3</title>
<g id="a_edge4_Node000004_Node000003"><a xlink:title=" ">
<path fill="none" stroke="#63b8ff" d="M52.7,-54.75C52.7,-47.8 52.7,-37.85 52.7,-29.13"/>
<polygon fill="#63b8ff" stroke="#63b8ff" points="56.2,-29.09 52.7,-19.09 49.2,-29.09 56.2,-29.09"/>
</a>
</g>
</g>
</g>
</svg>
