<?xml version="1.0" encoding="UTF-8" standalone="no"?>
<!DOCTYPE svg PUBLIC "-//W3C//DTD SVG 1.1//EN"
 "http://www.w3.org/Graphics/SVG/1.1/DTD/svg11.dtd">
<!-- Generated by graphviz version 2.43.0 (0)
 -->
<!-- Title: examples/CryptnoxWallet.cpp Pages: 1 -->
<svg width="347pt" height="192pt"
 viewBox="0.00 0.00 346.65 192.00" xmlns="http://www.w3.org/2000/svg" xmlns:xlink="http://www.w3.org/1999/xlink">
<g id="graph0" class="graph" transform="scale(1 1) rotate(0) translate(4 188)">
<title>examples/CryptnoxWallet.cpp</title>
<!-- Node1 -->
<g id="Node000001" class="node">
<title>Node1</title>
<g id="a_Node000001"><a xlink:title=" ">
<polygon fill="#999999" stroke="#666666" points="201.65,-184 38.65,-184 38.65,-165 201.65,-165 201.65,-184"/>
<text text-anchor="middle" x="120.15" y="-172" font-family="Helvetica,sans-Serif" font-size="10.00">examples/CryptnoxWallet.cpp</text>
</a>
</g>
</g>
<!-- Node2 -->
<g id="Node000002" class="node">
<title>Node2</title>
<g id="a_Node000002"><a xlink:title=" ">
<polygon fill="#e0e0e0" stroke="#999999" points="112.65,-19 49.65,-19 49.65,0 112.65,0 112.65,-19"/>
<text text-anchor="middle" x="81.15" y="-7" font-family="Helvetica,sans-Serif" font-size="10.00">Arduino.h</text>
</a>
</g>
</g>
<!-- Node1&#45;&gt;Node2 -->
<g id="edge1_Node000001_Node000002" class="edge">
<title>Node1&#45;&gt;Node2</title>
<g id="a_edge1_Node000001_Node000002"><a xlink:title=" ">
<path fill="none" stroke="#63b8ff" d="M63.36,-164.95C42.08,-158.68 19.96,-147.82 7.15,-129 -17.7,-92.51 30.2,-48 59.96,-25.32"/>
<polygon fill="#63b8ff" stroke="#63b8ff" points="62.19,-28.03 68.15,-19.27 58.03,-22.4 62.19,-28.03"/>
</a>
</g>
</g>
<!-- Node3 -->
<g id="Node000003" class="node">
<title>Node3</title>
<g id="a_Node000003"><a xlink:title=" ">
<polygon fill="#e0e0e0" stroke="#999999" points="80.15,-129 16.15,-129 16.15,-110 80.15,-110 80.15,-129"/>
<text text-anchor="middle" x="48.15" y="-117" font-family="Helvetica,sans-Serif" font-size="10.00">SHA512.h</text>
</a>
</g>
</g>
<!-- Node1&#45;&gt;Node3 -->
<g id="edge2_Node000001_Node000003" class="edge">
<title>Node1&#45;&gt;Node3</title>
<g id="a_edge2_Node000001_Node000003"><a xlink:title=" ">
<path fill="none" stroke="#63b8ff" d="M108.58,-164.98C97.73,-157 81.27,-144.88 68.26,-135.31"/>
<polygon fill="#63b8ff" stroke="#63b8ff" points="70.05,-132.28 59.93,-129.17 65.9,-137.92 70.05,-132.28"/>
</a>
</g>
</g>
<!-- Node4 -->
<g id="Node000004" class="node">
<title>Node4</title>
<g id="a_Node000004"><a xlink:title=" ">
<polygon fill="#e0e0e0" stroke="#999999" points="142.15,-129 98.15,-129 98.15,-110 142.15,-110 142.15,-129"/>
<text text-anchor="middle" x="120.15" y="-117" font-family="Helvetica,sans-Serif" font-size="10.00">AES.h</text>
</a>
</g>
</g>
<!-- Node1&#45;&gt;Node4 -->
<g id="edge3_Node000001_Node000004" class="edge">
<title>Node1&#45;&gt;Node4</title>
<g id="a_edge3_Node000001_Node000004"><a xlink:title=" ">
<path fill="none" stroke="#63b8ff" d="M120.15,-164.75C120.15,-157.8 120.15,-147.85 120.15,-139.13"/>
<polygon fill="#63b8ff" stroke="#63b8ff" points="123.65,-139.09 120.15,-129.09 116.65,-139.09 123.65,-139.09"/>
</a>
</g>
</g>
<!-- Node5 -->
<g id="Node000005" class="node">
<title>Node5</title>
<g id="a_Node000005"><a xlink:href="CryptnoxWallet_8h.html" target="_top" xlink:title=" ">
<polygon fill="white" stroke="#666666" points="261.65,-129 160.65,-129 160.65,-110 261.65,-110 261.65,-129"/>
<text text-anchor="middle" x="211.15" y="-117" font-family="Helvetica,sans-Serif" font-size="10.00">CryptnoxWallet.h</text>
</a>
</g>
</g>
<!-- Node1&#45;&gt;Node5 -->
<g id="edge4_Node000001_Node000005" class="edge">
<title>Node1&#45;&gt;Node5</title>
<g id="a_edge4_Node000001_Node000005"><a xlink:title=" ">
<path fill="none" stroke="#63b8ff" d="M134.77,-164.98C149.01,-156.69 170.9,-143.94 187.6,-134.22"/>
<polygon fill="#63b8ff" stroke="#63b8ff" points="189.38,-137.23 196.26,-129.17 185.86,-131.18 189.38,-137.23"/>
</a>
</g>
</g>
<!-- Node9 -->
<g id="Node000009" class="node">
<title>Node9</title>
<g id="a_Node000009"><a xlink:title=" ">
<polygon fill="#e0e0e0" stroke="#999999" points="338.65,-129 279.65,-129 279.65,-110 338.65,-110 338.65,-129"/>
<text text-anchor="middle" x="309.15" y="-117" font-family="Helvetica,sans-Serif" font-size="10.00">AESLib.h</text>
</a>
</g>
</g>
<!-- Node1&#45;&gt;Node9 -->
<g id="edge11_Node000001_Node000009" class="edge">
<title>Node1&#45;&gt;Node9</title>
<g id="a_edge11_Node000001_Node000009"><a xlink:title=" ">
<path fill="none" stroke="#63b8ff" d="M150.51,-164.98C182.8,-155.93 234.01,-141.57 269.47,-131.63"/>
<polygon fill="#63b8ff" stroke="#63b8ff" points="270.8,-134.89 279.48,-128.82 268.91,-128.15 270.8,-134.89"/>
</a>
</g>
</g>
<!-- Node5&#45;&gt;Node2 -->
<g id="edge5_Node000005_Node000002" class="edge">
<title>Node5&#45;&gt;Node2</title>
<g id="a_edge5_Node000005_Node000002"><a xlink:title=" ">
<path fill="none" stroke="#63b8ff" d="M163.15,-109.98C125.92,-102.27 78.76,-89.74 67.15,-74 57.33,-60.69 63.33,-41.83 70.26,-28.12"/>
<polygon fill="#63b8ff" stroke="#63b8ff" points="73.42,-29.64 75.26,-19.21 67.31,-26.22 73.42,-29.64"/>
</a>
</g>
</g>
<!-- Node6 -->
<g id="Node000006" class="node">
<title>Node6</title>
<g id="a_Node000006"><a xlink:href="NFCDriver_8h.html" target="_top" xlink:title=" ">
<polygon fill="white" stroke="#666666" points="151.65,-74 76.65,-74 76.65,-55 151.65,-55 151.65,-74"/>
<text text-anchor="middle" x="114.15" y="-62" font-family="Helvetica,sans-Serif" font-size="10.00">NFCDriver.h</text>
</a>
</g>
</g>
<!-- Node5&#45;&gt;Node6 -->
<g id="edge6_Node000005_Node000006" class="edge">
<title>Node5&#45;&gt;Node6</title>
<g id="a_edge6_Node000005_Node000006"><a xlink:title=" ">
<path fill="none" stroke="#63b8ff" d="M195.56,-109.98C180.38,-101.69 157.05,-88.94 139.25,-79.22"/>
<polygon fill="#63b8ff" stroke="#63b8ff" points="140.47,-75.89 130.02,-74.17 137.11,-82.04 140.47,-75.89"/>
</a>
</g>
</g>
<!-- Node7 -->
<g id="Node000007" class="node">
<title>Node7</title>
<g id="a_Node000007"><a xlink:href="SerialDriver_8h.html" target="_top" xlink:title=" ">
<polygon fill="white" stroke="#666666" points="252.65,-74 169.65,-74 169.65,-55 252.65,-55 252.65,-74"/>
<text text-anchor="middle" x="211.15" y="-62" font-family="Helvetica,sans-Serif" font-size="10.00">SerialDriver.h</text>
</a>
</g>
</g>
<!-- Node5&#45;&gt;Node7 -->
<g id="edge8_Node000005_Node000007" class="edge">
<title>Node5&#45;&gt;Node7</title>
<g id="a_edge8_Node000005_Node000007"><a xlink:title=" ">
<path fill="none" stroke="#63b8ff" d="M211.15,-109.75C211.15,-102.8 211.15,-92.85 211.15,-84.13"/>
<polygon fill="#63b8ff" stroke="#63b8ff" points="214.65,-84.09 211.15,-74.09 207.65,-84.09 214.65,-84.09"/>
</a>
</g>
</g>
<!-- Node8 -->
<g id="Node000008" class="node">
<title>Node8</title>
<g id="a_Node000008"><a xlink:title=" ">
<polygon fill="#e0e0e0" stroke="#999999" points="321.65,-74 270.65,-74 270.65,-55 321.65,-55 321.65,-74"/>
<text text-anchor="middle" x="296.15" y="-62" font-family="Helvetica,sans-Serif" font-size="10.00">uECC.h</text>
</a>
</g>
</g>
<!-- Node5&#45;&gt;Node8 -->
<g id="edge10_Node000005_Node000008" class="edge">
<title>Node5&#45;&gt;Node8</title>
<g id="a_edge10_Node000005_Node000008"><a xlink:title=" ">
<path fill="none" stroke="#63b8ff" d="M224.8,-109.98C237.99,-101.77 258.17,-89.18 273.72,-79.49"/>
<polygon fill="#63b8ff" stroke="#63b8ff" points="275.61,-82.43 282.24,-74.17 271.9,-76.49 275.61,-82.43"/>
</a>
</g>
</g>
<!-- Node6&#45;&gt;Node2 -->
<g id="edge7_Node000006_Node000002" class="edge">
<title>Node6&#45;&gt;Node2</title>
<g id="a_edge7_Node000006_Node000002"><a xlink:title=" ">
<path fill="none" stroke="#63b8ff" d="M108.7,-54.75C104.13,-47.42 97.48,-36.73 91.85,-27.7"/>
<polygon fill="#63b8ff" stroke="#63b8ff" points="94.75,-25.73 86.5,-19.09 88.81,-29.43 94.75,-25.73"/>
</a>
</g>
</g>
<!-- Node7&#45;&gt;Node2 -->
<g id="edge9_Node000007_Node000002" class="edge">
<title>Node7&#45;&gt;Node2</title>
<g id="a_edge9_Node000007_Node000002"><a xlink:title=" ">
<path fill="none" stroke="#63b8ff" d="M190.26,-54.98C169.06,-46.34 136.02,-32.87 111.85,-23.02"/>
<polygon fill="#63b8ff" stroke="#63b8ff" points="113,-19.7 102.41,-19.17 110.35,-26.19 113,-19.7"/>
</a>
</g>
</g>
</g>
</svg>
