<?xml version="1.0" encoding="UTF-8" standalone="no"?>
<!DOCTYPE svg PUBLIC "-//W3C//DTD SVG 1.1//EN"
 "http://www.w3.org/Graphics/SVG/1.1/DTD/svg11.dtd">
<!-- Generated by graphviz version 2.43.0 (0)
 -->
<!-- Title: examples/CryptnoxWallet.cpp Pages: 1 -->
<svg width="347pt" height="192pt"
 viewBox="0.00 0.00 346.65 192.00" xmlns="http://www.w3.org/2000/svg" xmlns:xlink="http://www.w3.org/1999/xlink">
<g id="graph0" class="graph" transform="scale(1 1) rotate(0) translate(4 188)">
<title>examples/CryptnoxWallet.cpp</title>
<!-- Node1 -->
<g id="Node000001" class="node">
<title>Node1</title>
<g id="a_Node000001"><a xlink:title=" ">
<polygon fill="#999999" stroke="#666666" points="201.65,-184 38.65,-184 38.65,-165 201.65,-165 201.65,-184"/>
<text text-anchor="middle" x="120.15" y="-172" font-family="Helvetica,sans-Serif" font-size="10.00">examples/CryptnoxWallet.cpp</text>
</a>
</g>
</g>
<!-- Node2 -->
<g id="Node000002" class="node">
<title>Node2</title>
<g id="a_Node000002"><a xlink:title=" ">
<polygon fill="#e0e0e0" stroke="#999999" points="128.65,-19 65.65,-19 65.65,0 128.65,0 128.65,-19"/>
<text text-anchor="middle" x="97.15" y="-7" font-family="Helvetica,sans-Serif" font-size="10.00">Arduino.h</text>
</a>
</g>
</g>
<!-- Node1&#45;&gt;Node2 -->
<g id="edge1_Node000001_Node000002" class="edge">
<title>Node1&#45;&gt;Node2</title>
<g id="a_edge1_Node000001_Node000002"><a xlink:title=" ">
<path fill="none" stroke="#63b8ff" d="M63.37,-164.95C42.08,-158.68 19.97,-147.82 7.15,-129 -19.41,-89.99 37.76,-46.32 72.7,-24.5"/>
<polygon fill="#63b8ff" stroke="#63b8ff" points="74.71,-27.36 81.45,-19.19 71.09,-21.38 74.71,-27.36"/>
</a>
</g>
</g>
<!-- Node3 -->
<g id="Node000003" class="node">
<title>Node3</title>
<g id="a_Node000003"><a xlink:title=" ">
<polygon fill="#e0e0e0" stroke="#999999" points="80.15,-129 16.15,-129 16.15,-110 80.15,-110 80.15,-129"/>
<text text-anchor="middle" x="48.15" y="-117" font-family="Helvetica,sans-Serif" font-size="10.00">SHA512.h</text>
</a>
</g>
</g>
<!-- Node1&#45;&gt;Node3 -->
<g id="edge2_Node000001_Node000003" class="edge">
<title>Node1&#45;&gt;Node3</title>
<g id="a_edge2_Node000001_Node000003"><a xlink:title=" ">
<path fill="none" stroke="#63b8ff" d="M108.58,-164.98C97.73,-157 81.27,-144.88 68.27,-135.31"/>
<polygon fill="#63b8ff" stroke="#63b8ff" points="70.06,-132.28 59.93,-129.17 65.91,-137.92 70.06,-132.28"/>
</a>
</g>
</g>
<!-- Node4 -->
<g id="Node000004" class="node">
<title>Node4</title>
<g id="a_Node000004"><a xlink:title=" ">
<polygon fill="#e0e0e0" stroke="#999999" points="142.15,-129 98.15,-129 98.15,-110 142.15,-110 142.15,-129"/>
<text text-anchor="middle" x="120.15" y="-117" font-family="Helvetica,sans-Serif" font-size="10.00">AES.h</text>
</a>
</g>
</g>
<!-- Node1&#45;&gt;Node4 -->
<g id="edge3_Node000001_Node000004" class="edge">
<title>Node1&#45;&gt;Node4</title>
<g id="a_edge3_Node000001_Node000004"><a xlink:title=" ">
<path fill="none" stroke="#63b8ff" d="M120.15,-164.75C120.15,-157.8 120.15,-147.85 120.15,-139.13"/>
<polygon fill="#63b8ff" stroke="#63b8ff" points="123.65,-139.09 120.15,-129.09 116.65,-139.09 123.65,-139.09"/>
</a>
</g>
</g>
<!-- Node5 -->
<g id="Node000005" class="node">
<title>Node5</title>
<g id="a_Node000005"><a xlink:href="CryptnoxWallet_8h.html" target="_top" xlink:title=" ">
<polygon fill="white" stroke="#666666" points="261.65,-129 160.65,-129 160.65,-110 261.65,-110 261.65,-129"/>
<text text-anchor="middle" x="211.15" y="-117" font-family="Helvetica,sans-Serif" font-size="10.00">CryptnoxWallet.h</text>
</a>
</g>
</g>
<!-- Node1&#45;&gt;Node5 -->
<g id="edge4_Node000001_Node000005" class="edge">
<title>Node1&#45;&gt;Node5</title>
<g id="a_edge4_Node000001_Node000005"><a xlink:title=" ">
<path fill="none" stroke="#63b8ff" d="M134.77,-164.98C149.02,-156.69 170.9,-143.94 187.6,-134.22"/>
<polygon fill="#63b8ff" stroke="#63b8ff" points="189.39,-137.23 196.27,-129.17 185.86,-131.18 189.39,-137.23"/>
</a>
</g>
</g>
<!-- Node9 -->
<g id="Node000009" class="node">
<title>Node9</title>
<g id="a_Node000009"><a xlink:title=" ">
<polygon fill="#e0e0e0" stroke="#999999" points="338.65,-129 279.65,-129 279.65,-110 338.65,-110 338.65,-129"/>
<text text-anchor="middle" x="309.15" y="-117" font-family="Helvetica,sans-Serif" font-size="10.00">AESLib.h</text>
</a>
</g>
</g>
<!-- Node1&#45;&gt;Node9 -->
<g id="edge11_Node000001_Node000009" class="edge">
<title>Node1&#45;&gt;Node9</title>
<g id="a_edge11_Node000001_Node000009"><a xlink:title=" ">
<path fill="none" stroke="#63b8ff" d="M150.52,-164.98C182.81,-155.93 234.02,-141.57 269.48,-131.63"/>
<polygon fill="#63b8ff" stroke="#63b8ff" points="270.8,-134.89 279.49,-128.82 268.91,-128.15 270.8,-134.89"/>
</a>
</g>
</g>
<!-- Node5&#45;&gt;Node2 -->
<g id="edge7_Node000005_Node000002" class="edge">
<title>Node5&#45;&gt;Node2</title>
<g id="a_edge7_Node000005_Node000002"><a xlink:title=" ">
<path fill="none" stroke="#63b8ff" d="M171.38,-109.97C137.84,-101.87 93.65,-88.76 83.15,-74 73.57,-60.53 79.54,-41.69 86.39,-28.03"/>
<polygon fill="#63b8ff" stroke="#63b8ff" points="89.53,-29.59 91.34,-19.15 83.41,-26.19 89.53,-29.59"/>
</a>
</g>
</g>
<!-- Node6 -->
<g id="Node000006" class="node">
<title>Node6</title>
<g id="a_Node000006"><a xlink:href="NFCDriver_8h.html" target="_top" xlink:title=" ">
<polygon fill="white" stroke="#666666" points="167.65,-74 92.65,-74 92.65,-55 167.65,-55 167.65,-74"/>
<text text-anchor="middle" x="130.15" y="-62" font-family="Helvetica,sans-Serif" font-size="10.00">NFCDriver.h</text>
</a>
</g>
</g>
<!-- Node5&#45;&gt;Node6 -->
<g id="edge5_Node000005_Node000006" class="edge">
<title>Node5&#45;&gt;Node6</title>
<g id="a_edge5_Node000005_Node000006"><a xlink:title=" ">
<path fill="none" stroke="#63b8ff" d="M198.14,-109.98C185.7,-101.84 166.7,-89.41 151.94,-79.76"/>
<polygon fill="#63b8ff" stroke="#63b8ff" points="153.69,-76.72 143.4,-74.17 149.86,-82.57 153.69,-76.72"/>
</a>
</g>
</g>
<!-- Node7 -->
<g id="Node000007" class="node">
<title>Node7</title>
<g id="a_Node000007"><a xlink:title=" ">
<polygon fill="#e0e0e0" stroke="#999999" points="236.65,-74 185.65,-74 185.65,-55 236.65,-55 236.65,-74"/>
<text text-anchor="middle" x="211.15" y="-62" font-family="Helvetica,sans-Serif" font-size="10.00">uECC.h</text>
</a>
</g>
</g>
<!-- Node5&#45;&gt;Node7 -->
<g id="edge8_Node000005_Node000007" class="edge">
<title>Node5&#45;&gt;Node7</title>
<g id="a_edge8_Node000005_Node000007"><a xlink:title=" ">
<path fill="none" stroke="#63b8ff" d="M211.15,-109.75C211.15,-102.8 211.15,-92.85 211.15,-84.13"/>
<polygon fill="#63b8ff" stroke="#63b8ff" points="214.65,-84.09 211.15,-74.09 207.65,-84.09 214.65,-84.09"/>
</a>
</g>
</g>
<!-- Node8 -->
<g id="Node000008" class="node">
<title>Node8</title>
<g id="a_Node000008"><a xlink:href="SerialDriver_8h.html" target="_top" xlink:title=" ">
<polygon fill="white" stroke="#666666" points="337.65,-74 254.65,-74 254.65,-55 337.65,-55 337.65,-74"/>
<text text-anchor="middle" x="296.15" y="-62" font-family="Helvetica,sans-Serif" font-size="10.00">SerialDriver.h</text>
</a>
</g>
</g>
<!-- Node5&#45;&gt;Node8 -->
<g id="edge9_Node000005_Node000008" class="edge">
<title>Node5&#45;&gt;Node8</title>
<g id="a_edge9_Node000005_Node000008"><a xlink:title=" ">
<path fill="none" stroke="#63b8ff" d="M224.81,-109.98C237.99,-101.77 258.18,-89.18 273.72,-79.49"/>
<polygon fill="#63b8ff" stroke="#63b8ff" points="275.61,-82.43 282.25,-74.17 271.91,-76.49 275.61,-82.43"/>
</a>
</g>
</g>
<!-- Node6&#45;&gt;Node2 -->
<g id="edge6_Node000006_Node000002" class="edge">
<title>Node6&#45;&gt;Node2</title>
<g id="a_edge6_Node000006_Node000002"><a xlink:title=" ">
<path fill="none" stroke="#63b8ff" d="M124.7,-54.75C120.14,-47.42 113.48,-36.73 107.86,-27.7"/>
<polygon fill="#63b8ff" stroke="#63b8ff" points="110.76,-25.73 102.5,-19.09 104.82,-29.43 110.76,-25.73"/>
</a>
</g>
</g>
<!-- Node8&#45;&gt;Node2 -->
<g id="edge10_Node000008_Node000002" class="edge">
<title>Node8&#45;&gt;Node2</title>
<g id="a_edge10_Node000008_Node000002"><a xlink:title=" ">
<path fill="none" stroke="#63b8ff" d="M264.18,-54.98C230.14,-45.92 176.12,-31.53 138.78,-21.59"/>
<polygon fill="#63b8ff" stroke="#63b8ff" points="139.28,-18.1 128.72,-18.91 137.48,-24.86 139.28,-18.1"/>
</a>
</g>
</g>
</g>
</svg>
