<?xml version="1.0" encoding="UTF-8" standalone="no"?>
<!DOCTYPE svg PUBLIC "-//W3C//DTD SVG 1.1//EN"
 "http://www.w3.org/Graphics/SVG/1.1/DTD/svg11.dtd">
<!-- Generated by graphviz version 2.43.0 (0)
 -->
<!-- Title: examples/CryptnoxWallet.cpp Pages: 1 -->
<svg width="347pt" height="192pt"
 viewBox="0.00 0.00 346.70 192.00" xmlns="http://www.w3.org/2000/svg" xmlns:xlink="http://www.w3.org/1999/xlink">
<g id="graph0" class="graph" transform="scale(1 1) rotate(0) translate(4 188)">
<title>examples/CryptnoxWallet.cpp</title>
<!-- Node1 -->
<g id="Node000001" class="node">
<title>Node1</title>
<g id="a_Node000001"><a xlink:title=" ">
<polygon fill="#999999" stroke="#666666" points="201.7,-184 38.7,-184 38.7,-165 201.7,-165 201.7,-184"/>
<text text-anchor="middle" x="120.2" y="-172" font-family="Helvetica,sans-Serif" font-size="10.00">examples/CryptnoxWallet.cpp</text>
</a>
</g>
</g>
<!-- Node2 -->
<g id="Node000002" class="node">
<title>Node2</title>
<g id="a_Node000002"><a xlink:title=" ">
<polygon fill="#e0e0e0" stroke="#999999" points="135.7,-19 72.7,-19 72.7,0 135.7,0 135.7,-19"/>
<text text-anchor="middle" x="104.2" y="-7" font-family="Helvetica,sans-Serif" font-size="10.00">Arduino.h</text>
</a>
</g>
</g>
<!-- Node1&#45;&gt;Node2 -->
<g id="edge1_Node000001_Node000002" class="edge">
<title>Node1&#45;&gt;Node2</title>
<g id="a_edge1_Node000001_Node000002"><a xlink:title=" ">
<path fill="none" stroke="#63b8ff" d="M63.42,-164.95C42.14,-158.68 20.02,-147.82 7.2,-129 -20.25,-88.69 41.46,-45.3 78.64,-23.94"/>
<polygon fill="#63b8ff" stroke="#63b8ff" points="80.46,-26.93 87.49,-19 77.05,-20.82 80.46,-26.93"/>
</a>
</g>
</g>
<!-- Node3 -->
<g id="Node000003" class="node">
<title>Node3</title>
<g id="a_Node000003"><a xlink:title=" ">
<polygon fill="#e0e0e0" stroke="#999999" points="80.2,-129 16.2,-129 16.2,-110 80.2,-110 80.2,-129"/>
<text text-anchor="middle" x="48.2" y="-117" font-family="Helvetica,sans-Serif" font-size="10.00">SHA512.h</text>
</a>
</g>
</g>
<!-- Node1&#45;&gt;Node3 -->
<g id="edge2_Node000001_Node000003" class="edge">
<title>Node1&#45;&gt;Node3</title>
<g id="a_edge2_Node000001_Node000003"><a xlink:title=" ">
<path fill="none" stroke="#63b8ff" d="M108.64,-164.98C97.78,-157 81.32,-144.88 68.32,-135.31"/>
<polygon fill="#63b8ff" stroke="#63b8ff" points="70.11,-132.28 59.98,-129.17 65.96,-137.92 70.11,-132.28"/>
</a>
</g>
</g>
<!-- Node4 -->
<g id="Node000004" class="node">
<title>Node4</title>
<g id="a_Node000004"><a xlink:title=" ">
<polygon fill="#e0e0e0" stroke="#999999" points="142.2,-129 98.2,-129 98.2,-110 142.2,-110 142.2,-129"/>
<text text-anchor="middle" x="120.2" y="-117" font-family="Helvetica,sans-Serif" font-size="10.00">AES.h</text>
</a>
</g>
</g>
<!-- Node1&#45;&gt;Node4 -->
<g id="edge3_Node000001_Node000004" class="edge">
<title>Node1&#45;&gt;Node4</title>
<g id="a_edge3_Node000001_Node000004"><a xlink:title=" ">
<path fill="none" stroke="#63b8ff" d="M120.2,-164.75C120.2,-157.8 120.2,-147.85 120.2,-139.13"/>
<polygon fill="#63b8ff" stroke="#63b8ff" points="123.7,-139.09 120.2,-129.09 116.7,-139.09 123.7,-139.09"/>
</a>
</g>
</g>
<!-- Node5 -->
<g id="Node000005" class="node">
<title>Node5</title>
<g id="a_Node000005"><a xlink:href="CryptnoxWallet_8h.html" target="_top" xlink:title=" ">
<polygon fill="white" stroke="#666666" points="261.7,-129 160.7,-129 160.7,-110 261.7,-110 261.7,-129"/>
<text text-anchor="middle" x="211.2" y="-117" font-family="Helvetica,sans-Serif" font-size="10.00">CryptnoxWallet.h</text>
</a>
</g>
</g>
<!-- Node1&#45;&gt;Node5 -->
<g id="edge4_Node000001_Node000005" class="edge">
<title>Node1&#45;&gt;Node5</title>
<g id="a_edge4_Node000001_Node000005"><a xlink:title=" ">
<path fill="none" stroke="#63b8ff" d="M134.83,-164.98C149.07,-156.69 170.96,-143.94 187.66,-134.22"/>
<polygon fill="#63b8ff" stroke="#63b8ff" points="189.44,-137.23 196.32,-129.17 185.92,-131.18 189.44,-137.23"/>
</a>
</g>
</g>
<!-- Node8 -->
<g id="Node000008" class="node">
<title>Node8</title>
<g id="a_Node000008"><a xlink:title=" ">
<polygon fill="#e0e0e0" stroke="#999999" points="338.7,-129 279.7,-129 279.7,-110 338.7,-110 338.7,-129"/>
<text text-anchor="middle" x="309.2" y="-117" font-family="Helvetica,sans-Serif" font-size="10.00">AESLib.h</text>
</a>
</g>
</g>
<!-- Node1&#45;&gt;Node8 -->
<g id="edge9_Node000001_Node000008" class="edge">
<title>Node1&#45;&gt;Node8</title>
<g id="a_edge9_Node000001_Node000008"><a xlink:title=" ">
<path fill="none" stroke="#63b8ff" d="M150.57,-164.98C182.86,-155.93 234.07,-141.57 269.53,-131.63"/>
<polygon fill="#63b8ff" stroke="#63b8ff" points="270.85,-134.89 279.54,-128.82 268.96,-128.15 270.85,-134.89"/>
</a>
</g>
</g>
<!-- Node5&#45;&gt;Node2 -->
<g id="edge7_Node000005_Node000002" class="edge">
<title>Node5&#45;&gt;Node2</title>
<g id="a_edge7_Node000005_Node000002"><a xlink:title=" ">
<path fill="none" stroke="#63b8ff" d="M180.75,-109.95C161.7,-103.13 138.03,-91.73 123.2,-74 112.71,-61.45 108.01,-43.25 105.91,-29.55"/>
<polygon fill="#63b8ff" stroke="#63b8ff" points="109.35,-28.84 104.68,-19.32 102.4,-29.67 109.35,-28.84"/>
</a>
</g>
</g>
<!-- Node6 -->
<g id="Node000006" class="node">
<title>Node6</title>
<g id="a_Node000006"><a xlink:href="NFCDriver_8h.html" target="_top" xlink:title=" ">
<polygon fill="white" stroke="#666666" points="207.7,-74 132.7,-74 132.7,-55 207.7,-55 207.7,-74"/>
<text text-anchor="middle" x="170.2" y="-62" font-family="Helvetica,sans-Serif" font-size="10.00">NFCDriver.h</text>
</a>
</g>
</g>
<!-- Node5&#45;&gt;Node6 -->
<g id="edge5_Node000005_Node000006" class="edge">
<title>Node5&#45;&gt;Node6</title>
<g id="a_edge5_Node000005_Node000006"><a xlink:title=" ">
<path fill="none" stroke="#63b8ff" d="M204.43,-109.75C198.64,-102.26 190.15,-91.28 183.07,-82.13"/>
<polygon fill="#63b8ff" stroke="#63b8ff" points="185.74,-79.86 176.85,-74.09 180.2,-84.14 185.74,-79.86"/>
</a>
</g>
</g>
<!-- Node7 -->
<g id="Node000007" class="node">
<title>Node7</title>
<g id="a_Node000007"><a xlink:title=" ">
<polygon fill="#e0e0e0" stroke="#999999" points="276.7,-74 225.7,-74 225.7,-55 276.7,-55 276.7,-74"/>
<text text-anchor="middle" x="251.2" y="-62" font-family="Helvetica,sans-Serif" font-size="10.00">uECC.h</text>
</a>
</g>
</g>
<!-- Node5&#45;&gt;Node7 -->
<g id="edge8_Node000005_Node000007" class="edge">
<title>Node5&#45;&gt;Node7</title>
<g id="a_edge8_Node000005_Node000007"><a xlink:title=" ">
<path fill="none" stroke="#63b8ff" d="M217.81,-109.75C223.46,-102.26 231.75,-91.28 238.66,-82.13"/>
<polygon fill="#63b8ff" stroke="#63b8ff" points="241.49,-84.18 244.72,-74.09 235.9,-79.96 241.49,-84.18"/>
</a>
</g>
</g>
<!-- Node6&#45;&gt;Node2 -->
<g id="edge6_Node000006_Node000002" class="edge">
<title>Node6&#45;&gt;Node2</title>
<g id="a_edge6_Node000006_Node000002"><a xlink:title=" ">
<path fill="none" stroke="#63b8ff" d="M159.6,-54.98C149.75,-47.07 134.85,-35.11 122.99,-25.58"/>
<polygon fill="#63b8ff" stroke="#63b8ff" points="124.99,-22.7 115,-19.17 120.61,-28.16 124.99,-22.7"/>
</a>
</g>
</g>
</g>
</svg>
