<?xml version="1.0" encoding="UTF-8" standalone="no"?>
<!DOCTYPE svg PUBLIC "-//W3C//DTD SVG 1.1//EN"
 "http://www.w3.org/Graphics/SVG/1.1/DTD/svg11.dtd">
<!-- Generated by graphviz version 2.43.0 (0)
 -->
<!-- Title: examples/CryptnoxWallet.h Pages: 1 -->
<svg width="265pt" height="137pt"
 viewBox="0.00 0.00 265.18 137.00" xmlns="http://www.w3.org/2000/svg" xmlns:xlink="http://www.w3.org/1999/xlink">
<g id="graph0" class="graph" transform="scale(1 1) rotate(0) translate(4 133)">
<title>examples/CryptnoxWallet.h</title>
<!-- Node1 -->
<g id="Node000001" class="node">
<title>Node1</title>
<g id="a_Node000001"><a xlink:title=" ">
<polygon fill="#999999" stroke="#666666" points="173.68,-129 21.68,-129 21.68,-110 173.68,-110 173.68,-129"/>
<text text-anchor="middle" x="97.68" y="-117" font-family="Helvetica,sans-Serif" font-size="10.00">examples/CryptnoxWallet.h</text>
</a>
</g>
</g>
<!-- Node2 -->
<g id="Node000002" class="node">
<title>Node2</title>
<g id="a_Node000002"><a xlink:title=" ">
<polygon fill="#e0e0e0" stroke="#999999" points="81.18,-19 18.18,-19 18.18,0 81.18,0 81.18,-19"/>
<text text-anchor="middle" x="49.68" y="-7" font-family="Helvetica,sans-Serif" font-size="10.00">Arduino.h</text>
</a>
</g>
</g>
<!-- Node1&#45;&gt;Node2 -->
<g id="edge1_Node000001_Node000002" class="edge">
<title>Node1&#45;&gt;Node2</title>
<g id="a_edge1_Node000001_Node000002"><a xlink:title=" ">
<path fill="none" stroke="#63b8ff" d="M57.06,-109.99C37.37,-103.59 15.46,-92.61 3.68,-74 -7.29,-56.66 10.6,-37.73 27.18,-25.09"/>
<polygon fill="#63b8ff" stroke="#63b8ff" points="29.46,-27.76 35.56,-19.09 25.39,-22.06 29.46,-27.76"/>
</a>
</g>
</g>
<!-- Node3 -->
<g id="Node000003" class="node">
<title>Node3</title>
<g id="a_Node000003"><a xlink:href="NFCDriver_8h.html" target="_top" xlink:title=" ">
<polygon fill="white" stroke="#666666" points="87.18,-74 12.18,-74 12.18,-55 87.18,-55 87.18,-74"/>
<text text-anchor="middle" x="49.68" y="-62" font-family="Helvetica,sans-Serif" font-size="10.00">NFCDriver.h</text>
</a>
</g>
</g>
<!-- Node1&#45;&gt;Node3 -->
<g id="edge2_Node000001_Node000003" class="edge">
<title>Node1&#45;&gt;Node3</title>
<g id="a_edge2_Node000001_Node000003"><a xlink:title=" ">
<path fill="none" stroke="#63b8ff" d="M89.76,-109.75C82.84,-102.11 72.62,-90.82 64.23,-81.56"/>
<polygon fill="#63b8ff" stroke="#63b8ff" points="66.77,-79.15 57.46,-74.09 61.58,-83.85 66.77,-79.15"/>
</a>
</g>
</g>
<!-- Node4 -->
<g id="Node000004" class="node">
<title>Node4</title>
<g id="a_Node000004"><a xlink:href="SerialDriver_8h.html" target="_top" xlink:title=" ">
<polygon fill="white" stroke="#666666" points="188.18,-74 105.18,-74 105.18,-55 188.18,-55 188.18,-74"/>
<text text-anchor="middle" x="146.68" y="-62" font-family="Helvetica,sans-Serif" font-size="10.00">SerialDriver.h</text>
</a>
</g>
</g>
<!-- Node1&#45;&gt;Node4 -->
<g id="edge4_Node000001_Node000004" class="edge">
<title>Node1&#45;&gt;Node4</title>
<g id="a_edge4_Node000001_Node000004"><a xlink:title=" ">
<path fill="none" stroke="#63b8ff" d="M105.77,-109.75C112.84,-102.11 123.27,-90.82 131.83,-81.56"/>
<polygon fill="#63b8ff" stroke="#63b8ff" points="134.52,-83.81 138.74,-74.09 129.38,-79.06 134.52,-83.81"/>
</a>
</g>
</g>
<!-- Node5 -->
<g id="Node000005" class="node">
<title>Node5</title>
<g id="a_Node000005"><a xlink:title=" ">
<polygon fill="#e0e0e0" stroke="#999999" points="257.18,-74 206.18,-74 206.18,-55 257.18,-55 257.18,-74"/>
<text text-anchor="middle" x="231.68" y="-62" font-family="Helvetica,sans-Serif" font-size="10.00">uECC.h</text>
</a>
</g>
</g>
<!-- Node1&#45;&gt;Node5 -->
<g id="edge6_Node000001_Node000005" class="edge">
<title>Node1&#45;&gt;Node5</title>
<g id="a_edge6_Node000001_Node000005"><a xlink:title=" ">
<path fill="none" stroke="#63b8ff" d="M119.21,-109.98C141.16,-101.3 175.42,-87.75 200.37,-77.88"/>
<polygon fill="#63b8ff" stroke="#63b8ff" points="201.75,-81.1 209.76,-74.17 199.18,-74.59 201.75,-81.1"/>
</a>
</g>
</g>
<!-- Node3&#45;&gt;Node2 -->
<g id="edge3_Node000003_Node000002" class="edge">
<title>Node3&#45;&gt;Node2</title>
<g id="a_edge3_Node000003_Node000002"><a xlink:title=" ">
<path fill="none" stroke="#63b8ff" d="M49.68,-54.75C49.68,-47.8 49.68,-37.85 49.68,-29.13"/>
<polygon fill="#63b8ff" stroke="#63b8ff" points="53.18,-29.09 49.68,-19.09 46.18,-29.09 53.18,-29.09"/>
</a>
</g>
</g>
<!-- Node4&#45;&gt;Node2 -->
<g id="edge5_Node000004_Node000002" class="edge">
<title>Node4&#45;&gt;Node2</title>
<g id="a_edge5_Node000004_Node000002"><a xlink:title=" ">
<path fill="none" stroke="#63b8ff" d="M131.1,-54.98C115.92,-46.69 92.58,-33.94 74.78,-24.22"/>
<polygon fill="#63b8ff" stroke="#63b8ff" points="76,-20.89 65.55,-19.17 72.65,-27.04 76,-20.89"/>
</a>
</g>
</g>
</g>
</svg>
