<?xml version="1.0" encoding="UTF-8" standalone="no"?>
<!DOCTYPE svg PUBLIC "-//W3C//DTD SVG 1.1//EN"
 "http://www.w3.org/Graphics/SVG/1.1/DTD/svg11.dtd">
<!-- Generated by graphviz version 2.43.0 (0)
 -->
<!-- Title: examples/CryptnoxWallet.cpp Pages: 1 -->
<svg width="343pt" height="192pt"
 viewBox="0.00 0.00 343.48 192.00" xmlns="http://www.w3.org/2000/svg" xmlns:xlink="http://www.w3.org/1999/xlink">
<g id="graph0" class="graph" transform="scale(1 1) rotate(0) translate(4 188)">
<title>examples/CryptnoxWallet.cpp</title>
<!-- Node1 -->
<g id="Node000001" class="node">
<title>Node1</title>
<g id="a_Node000001"><a xlink:title=" ">
<polygon fill="#999999" stroke="#666666" points="198.48,-184 35.48,-184 35.48,-165 198.48,-165 198.48,-184"/>
<text text-anchor="middle" x="116.98" y="-172" font-family="Helvetica,sans-Serif" font-size="10.00">examples/CryptnoxWallet.cpp</text>
</a>
</g>
</g>
<!-- Node2 -->
<g id="Node000002" class="node">
<title>Node2</title>
<g id="a_Node000002"><a xlink:title=" ">
<polygon fill="#e0e0e0" stroke="#999999" points="83.48,-74 20.48,-74 20.48,-55 83.48,-55 83.48,-74"/>
<text text-anchor="middle" x="51.98" y="-62" font-family="Helvetica,sans-Serif" font-size="10.00">Arduino.h</text>
</a>
</g>
</g>
<!-- Node1&#45;&gt;Node2 -->
<g id="edge1_Node000001_Node000002" class="edge">
<title>Node1&#45;&gt;Node2</title>
<g id="a_edge1_Node000001_Node000002"><a xlink:title=" ">
<path fill="none" stroke="#63b8ff" d="M60.19,-164.95C38.91,-158.68 16.79,-147.82 3.98,-129 -7.85,-111.62 11.32,-92.48 28.83,-79.8"/>
<polygon fill="#63b8ff" stroke="#63b8ff" points="30.86,-82.66 37.15,-74.13 26.92,-76.87 30.86,-82.66"/>
</a>
</g>
</g>
<!-- Node3 -->
<g id="Node000003" class="node">
<title>Node3</title>
<g id="a_Node000003"><a xlink:title=" ">
<polygon fill="#e0e0e0" stroke="#999999" points="76.98,-129 12.98,-129 12.98,-110 76.98,-110 76.98,-129"/>
<text text-anchor="middle" x="44.98" y="-117" font-family="Helvetica,sans-Serif" font-size="10.00">SHA512.h</text>
</a>
</g>
</g>
<!-- Node1&#45;&gt;Node3 -->
<g id="edge2_Node000001_Node000003" class="edge">
<title>Node1&#45;&gt;Node3</title>
<g id="a_edge2_Node000001_Node000003"><a xlink:title=" ">
<path fill="none" stroke="#63b8ff" d="M105.41,-164.98C94.56,-157 78.1,-144.88 65.09,-135.31"/>
<polygon fill="#63b8ff" stroke="#63b8ff" points="66.88,-132.28 56.76,-129.17 62.73,-137.92 66.88,-132.28"/>
</a>
</g>
</g>
<!-- Node4 -->
<g id="Node000004" class="node">
<title>Node4</title>
<g id="a_Node000004"><a xlink:title=" ">
<polygon fill="#e0e0e0" stroke="#999999" points="138.98,-129 94.98,-129 94.98,-110 138.98,-110 138.98,-129"/>
<text text-anchor="middle" x="116.98" y="-117" font-family="Helvetica,sans-Serif" font-size="10.00">AES.h</text>
</a>
</g>
</g>
<!-- Node1&#45;&gt;Node4 -->
<g id="edge3_Node000001_Node000004" class="edge">
<title>Node1&#45;&gt;Node4</title>
<g id="a_edge3_Node000001_Node000004"><a xlink:title=" ">
<path fill="none" stroke="#63b8ff" d="M116.98,-164.75C116.98,-157.8 116.98,-147.85 116.98,-139.13"/>
<polygon fill="#63b8ff" stroke="#63b8ff" points="120.48,-139.09 116.98,-129.09 113.48,-139.09 120.48,-139.09"/>
</a>
</g>
</g>
<!-- Node5 -->
<g id="Node000005" class="node">
<title>Node5</title>
<g id="a_Node000005"><a xlink:href="CryptnoxWallet_8h.html" target="_top" xlink:title=" ">
<polygon fill="white" stroke="#666666" points="258.48,-129 157.48,-129 157.48,-110 258.48,-110 258.48,-129"/>
<text text-anchor="middle" x="207.98" y="-117" font-family="Helvetica,sans-Serif" font-size="10.00">CryptnoxWallet.h</text>
</a>
</g>
</g>
<!-- Node1&#45;&gt;Node5 -->
<g id="edge4_Node000001_Node000005" class="edge">
<title>Node1&#45;&gt;Node5</title>
<g id="a_edge4_Node000001_Node000005"><a xlink:title=" ">
<path fill="none" stroke="#63b8ff" d="M131.6,-164.98C145.84,-156.69 167.73,-143.94 184.43,-134.22"/>
<polygon fill="#63b8ff" stroke="#63b8ff" points="186.21,-137.23 193.09,-129.17 182.69,-131.18 186.21,-137.23"/>
</a>
</g>
</g>
<!-- Node9 -->
<g id="Node000009" class="node">
<title>Node9</title>
<g id="a_Node000009"><a xlink:title=" ">
<polygon fill="#e0e0e0" stroke="#999999" points="335.48,-129 276.48,-129 276.48,-110 335.48,-110 335.48,-129"/>
<text text-anchor="middle" x="305.98" y="-117" font-family="Helvetica,sans-Serif" font-size="10.00">AESLib.h</text>
</a>
</g>
</g>
<!-- Node1&#45;&gt;Node9 -->
<g id="edge9_Node000001_Node000009" class="edge">
<title>Node1&#45;&gt;Node9</title>
<g id="a_edge9_Node000001_Node000009"><a xlink:title=" ">
<path fill="none" stroke="#63b8ff" d="M147.34,-164.98C179.63,-155.93 230.84,-141.57 266.3,-131.63"/>
<polygon fill="#63b8ff" stroke="#63b8ff" points="267.63,-134.89 276.31,-128.82 265.74,-128.15 267.63,-134.89"/>
</a>
</g>
</g>
<!-- Node5&#45;&gt;Node2 -->
<g id="edge7_Node000005_Node000002" class="edge">
<title>Node5&#45;&gt;Node2</title>
<g id="a_edge7_Node000005_Node000002"><a xlink:title=" ">
<path fill="none" stroke="#63b8ff" d="M182.91,-109.98C156.95,-101.16 116.17,-87.31 87.02,-77.41"/>
<polygon fill="#63b8ff" stroke="#63b8ff" points="87.83,-73.99 77.24,-74.08 85.58,-80.61 87.83,-73.99"/>
</a>
</g>
</g>
<!-- Node6 -->
<g id="Node000006" class="node">
<title>Node6</title>
<g id="a_Node000006"><a xlink:href="PN532Base_8h.html" target="_top" xlink:title=" ">
<polygon fill="white" stroke="#666666" points="206.48,-74 125.48,-74 125.48,-55 206.48,-55 206.48,-74"/>
<text text-anchor="middle" x="165.98" y="-62" font-family="Helvetica,sans-Serif" font-size="10.00">PN532Base.h</text>
</a>
</g>
</g>
<!-- Node5&#45;&gt;Node6 -->
<g id="edge5_Node000005_Node000006" class="edge">
<title>Node5&#45;&gt;Node6</title>
<g id="a_edge5_Node000005_Node000006"><a xlink:title=" ">
<path fill="none" stroke="#63b8ff" d="M201.04,-109.75C195.11,-102.26 186.41,-91.28 179.15,-82.13"/>
<polygon fill="#63b8ff" stroke="#63b8ff" points="181.74,-79.75 172.78,-74.09 176.25,-84.1 181.74,-79.75"/>
</a>
</g>
</g>
<!-- Node8 -->
<g id="Node000008" class="node">
<title>Node8</title>
<g id="a_Node000008"><a xlink:title=" ">
<polygon fill="#e0e0e0" stroke="#999999" points="275.48,-74 224.48,-74 224.48,-55 275.48,-55 275.48,-74"/>
<text text-anchor="middle" x="249.98" y="-62" font-family="Helvetica,sans-Serif" font-size="10.00">uECC.h</text>
</a>
</g>
</g>
<!-- Node5&#45;&gt;Node8 -->
<g id="edge8_Node000005_Node000008" class="edge">
<title>Node5&#45;&gt;Node8</title>
<g id="a_edge8_Node000005_Node000008"><a xlink:title=" ">
<path fill="none" stroke="#63b8ff" d="M214.91,-109.75C220.85,-102.26 229.55,-91.28 236.8,-82.13"/>
<polygon fill="#63b8ff" stroke="#63b8ff" points="239.7,-84.1 243.17,-74.09 234.22,-79.75 239.7,-84.1"/>
</a>
</g>
</g>
<!-- Node7 -->
<g id="Node000007" class="node">
<title>Node7</title>
<g id="a_Node000007"><a xlink:title=" ">
<polygon fill="#e0e0e0" stroke="#999999" points="216.48,-19 115.48,-19 115.48,0 216.48,0 216.48,-19"/>
<text text-anchor="middle" x="165.98" y="-7" font-family="Helvetica,sans-Serif" font-size="10.00">Adafruit_PN532.h</text>
</a>
</g>
</g>
<!-- Node6&#45;&gt;Node7 -->
<g id="edge6_Node000006_Node000007" class="edge">
<title>Node6&#45;&gt;Node7</title>
<g id="a_edge6_Node000006_Node000007"><a xlink:title=" ">
<path fill="none" stroke="#63b8ff" d="M165.98,-54.75C165.98,-47.8 165.98,-37.85 165.98,-29.13"/>
<polygon fill="#63b8ff" stroke="#63b8ff" points="169.48,-29.09 165.98,-19.09 162.48,-29.09 169.48,-29.09"/>
</a>
</g>
</g>
</g>
</svg>
