<?xml version="1.0" encoding="UTF-8" standalone="no"?>
<!DOCTYPE svg PUBLIC "-//W3C//DTD SVG 1.1//EN"
 "http://www.w3.org/Graphics/SVG/1.1/DTD/svg11.dtd">
<!-- Generated by graphviz version 2.43.0 (0)
 -->
<!-- Title: examples/PN532Base.h Pages: 1 -->
<svg width="327pt" height="137pt"
 viewBox="0.00 0.00 327.00 137.00" xmlns="http://www.w3.org/2000/svg" xmlns:xlink="http://www.w3.org/1999/xlink">
<g id="graph0" class="graph" transform="scale(1 1) rotate(0) translate(4 133)">
<title>examples/PN532Base.h</title>
<!-- Node1 -->
<g id="Node000001" class="node">
<title>Node1</title>
<g id="a_Node000001"><a xlink:title=" ">
<polygon fill="#999999" stroke="#666666" points="230.5,-129 98.5,-129 98.5,-110 230.5,-110 230.5,-129"/>
<text text-anchor="middle" x="164.5" y="-117" font-family="Helvetica,sans-Serif" font-size="10.00">examples/PN532Base.h</text>
</a>
</g>
</g>
<!-- Node2 -->
<g id="Node000002" class="node">
<title>Node2</title>
<g id="a_Node000002"><a xlink:href="CryptnoxWallet_8h.html" target="_top" xlink:title=" ">
<polygon fill="white" stroke="#666666" points="157.5,-74 5.5,-74 5.5,-55 157.5,-55 157.5,-74"/>
<text text-anchor="middle" x="81.5" y="-62" font-family="Helvetica,sans-Serif" font-size="10.00">examples/CryptnoxWallet.h</text>
</a>
</g>
</g>
<!-- Node1&#45;&gt;Node2 -->
<g id="edge1_Node000001_Node000002" class="edge">
<title>Node1&#45;&gt;Node2</title>
<g id="a_edge1_Node000001_Node000002"><a xlink:title=" ">
<path fill="none" stroke="#63b8ff" d="M142.46,-104.42C127.39,-94.81 107.91,-82.37 95.08,-74.17"/>
<polygon fill="#63b8ff" stroke="#63b8ff" points="140.85,-107.55 151.16,-109.98 144.62,-101.65 140.85,-107.55"/>
</a>
</g>
</g>
<!-- Node4 -->
<g id="Node000004" class="node">
<title>Node4</title>
<g id="a_Node000004"><a xlink:href="PN532Base_8cpp.html" target="_top" xlink:title=" ">
<polygon fill="white" stroke="#666666" points="319,-74 176,-74 176,-55 319,-55 319,-74"/>
<text text-anchor="middle" x="247.5" y="-62" font-family="Helvetica,sans-Serif" font-size="10.00">examples/PN532Base.cpp</text>
</a>
</g>
</g>
<!-- Node1&#45;&gt;Node4 -->
<g id="edge3_Node000001_Node000004" class="edge">
<title>Node1&#45;&gt;Node4</title>
<g id="a_edge3_Node000001_Node000004"><a xlink:title=" ">
<path fill="none" stroke="#63b8ff" d="M186.54,-104.42C201.61,-94.81 221.09,-82.37 233.92,-74.17"/>
<polygon fill="#63b8ff" stroke="#63b8ff" points="184.38,-101.65 177.84,-109.98 188.15,-107.55 184.38,-101.65"/>
</a>
</g>
</g>
<!-- Node3 -->
<g id="Node000003" class="node">
<title>Node3</title>
<g id="a_Node000003"><a xlink:href="CryptnoxWallet_8cpp.html" target="_top" xlink:title=" ">
<polygon fill="white" stroke="#666666" points="163,-19 0,-19 0,0 163,0 163,-19"/>
<text text-anchor="middle" x="81.5" y="-7" font-family="Helvetica,sans-Serif" font-size="10.00">examples/CryptnoxWallet.cpp</text>
</a>
</g>
</g>
<!-- Node2&#45;&gt;Node3 -->
<g id="edge2_Node000002_Node000003" class="edge">
<title>Node2&#45;&gt;Node3</title>
<g id="a_edge2_Node000002_Node000003"><a xlink:title=" ">
<path fill="none" stroke="#63b8ff" d="M81.5,-44.66C81.5,-35.93 81.5,-25.99 81.5,-19.09"/>
<polygon fill="#63b8ff" stroke="#63b8ff" points="78,-44.75 81.5,-54.75 85,-44.75 78,-44.75"/>
</a>
</g>
</g>
</g>
</svg>
