<?xml version="1.0" encoding="UTF-8" standalone="no"?>
<!DOCTYPE svg PUBLIC "-//W3C//DTD SVG 1.1//EN"
 "http://www.w3.org/Graphics/SVG/1.1/DTD/svg11.dtd">
<!-- Generated by graphviz version 2.43.0 (0)
 -->
<!-- Title: examples/PN532Adapter.cpp Pages: 1 -->
<svg width="318pt" height="192pt"
 viewBox="0.00 0.00 318.17 192.00" xmlns="http://www.w3.org/2000/svg" xmlns:xlink="http://www.w3.org/1999/xlink">
<g id="graph0" class="graph" transform="scale(1 1) rotate(0) translate(4 188)">
<title>examples/PN532Adapter.cpp</title>
<!-- Node1 -->
<g id="Node000001" class="node">
<title>Node1</title>
<g id="a_Node000001"><a xlink:title=" ">
<polygon fill="#999999" stroke="#666666" points="197.17,-184 40.17,-184 40.17,-165 197.17,-165 197.17,-184"/>
<text text-anchor="middle" x="118.67" y="-172" font-family="Helvetica,sans-Serif" font-size="10.00">examples/PN532Adapter.cpp</text>
</a>
</g>
</g>
<!-- Node2 -->
<g id="Node000002" class="node">
<title>Node2</title>
<g id="a_Node000002"><a xlink:href="PN532Adapter_8h.html" target="_top" xlink:title=" ">
<polygon fill="white" stroke="#666666" points="166.17,-129 71.17,-129 71.17,-110 166.17,-110 166.17,-129"/>
<text text-anchor="middle" x="118.67" y="-117" font-family="Helvetica,sans-Serif" font-size="10.00">PN532Adapter.h</text>
</a>
</g>
</g>
<!-- Node1&#45;&gt;Node2 -->
<g id="edge1_Node000001_Node000002" class="edge">
<title>Node1&#45;&gt;Node2</title>
<g id="a_edge1_Node000001_Node000002"><a xlink:title=" ">
<path fill="none" stroke="#63b8ff" d="M118.67,-164.75C118.67,-157.8 118.67,-147.85 118.67,-139.13"/>
<polygon fill="#63b8ff" stroke="#63b8ff" points="122.17,-139.09 118.67,-129.09 115.17,-139.09 122.17,-139.09"/>
</a>
</g>
</g>
<!-- Node3 -->
<g id="Node000003" class="node">
<title>Node3</title>
<g id="a_Node000003"><a xlink:title=" ">
<polygon fill="#e0e0e0" stroke="#999999" points="203.17,-19 140.17,-19 140.17,0 203.17,0 203.17,-19"/>
<text text-anchor="middle" x="171.67" y="-7" font-family="Helvetica,sans-Serif" font-size="10.00">Arduino.h</text>
</a>
</g>
</g>
<!-- Node2&#45;&gt;Node3 -->
<g id="edge2_Node000002_Node000003" class="edge">
<title>Node2&#45;&gt;Node3</title>
<g id="a_edge2_Node000002_Node000003"><a xlink:title=" ">
<path fill="none" stroke="#63b8ff" d="M71.39,-109.93C31.54,-100.56 -15.84,-83.03 5.67,-55 20.72,-35.39 85.84,-22.52 129.91,-15.88"/>
<polygon fill="#63b8ff" stroke="#63b8ff" points="130.67,-19.31 140.06,-14.41 129.66,-12.38 130.67,-19.31"/>
</a>
</g>
</g>
<!-- Node4 -->
<g id="Node000004" class="node">
<title>Node4</title>
<g id="a_Node000004"><a xlink:title=" ">
<polygon fill="#e0e0e0" stroke="#999999" points="116.17,-74 15.17,-74 15.17,-55 116.17,-55 116.17,-74"/>
<text text-anchor="middle" x="65.67" y="-62" font-family="Helvetica,sans-Serif" font-size="10.00">Adafruit_PN532.h</text>
</a>
</g>
</g>
<!-- Node2&#45;&gt;Node4 -->
<g id="edge3_Node000002_Node000004" class="edge">
<title>Node2&#45;&gt;Node4</title>
<g id="a_edge3_Node000002_Node000004"><a xlink:title=" ">
<path fill="none" stroke="#63b8ff" d="M109.92,-109.75C102.2,-102.03 90.77,-90.6 81.45,-81.28"/>
<polygon fill="#63b8ff" stroke="#63b8ff" points="83.81,-78.69 74.26,-74.09 78.86,-83.64 83.81,-78.69"/>
</a>
</g>
</g>
<!-- Node5 -->
<g id="Node000005" class="node">
<title>Node5</title>
<g id="a_Node000005"><a xlink:href="NFCDriver_8h.html" target="_top" xlink:title=" ">
<polygon fill="white" stroke="#666666" points="209.17,-74 134.17,-74 134.17,-55 209.17,-55 209.17,-74"/>
<text text-anchor="middle" x="171.67" y="-62" font-family="Helvetica,sans-Serif" font-size="10.00">NFCDriver.h</text>
</a>
</g>
</g>
<!-- Node2&#45;&gt;Node5 -->
<g id="edge4_Node000002_Node000005" class="edge">
<title>Node2&#45;&gt;Node5</title>
<g id="a_edge4_Node000002_Node000005"><a xlink:title=" ">
<path fill="none" stroke="#63b8ff" d="M127.42,-109.75C135.14,-102.03 146.57,-90.6 155.89,-81.28"/>
<polygon fill="#63b8ff" stroke="#63b8ff" points="158.49,-83.64 163.08,-74.09 153.54,-78.69 158.49,-83.64"/>
</a>
</g>
</g>
<!-- Node6 -->
<g id="Node000006" class="node">
<title>Node6</title>
<g id="a_Node000006"><a xlink:href="SerialDriver_8h.html" target="_top" xlink:title=" ">
<polygon fill="white" stroke="#666666" points="310.17,-74 227.17,-74 227.17,-55 310.17,-55 310.17,-74"/>
<text text-anchor="middle" x="268.67" y="-62" font-family="Helvetica,sans-Serif" font-size="10.00">SerialDriver.h</text>
</a>
</g>
</g>
<!-- Node2&#45;&gt;Node6 -->
<g id="edge6_Node000002_Node000006" class="edge">
<title>Node2&#45;&gt;Node6</title>
<g id="a_edge6_Node000002_Node000006"><a xlink:title=" ">
<path fill="none" stroke="#63b8ff" d="M142.77,-109.98C167.55,-101.23 206.37,-87.51 234.36,-77.62"/>
<polygon fill="#63b8ff" stroke="#63b8ff" points="235.87,-80.8 244.13,-74.17 233.54,-74.2 235.87,-80.8"/>
</a>
</g>
</g>
<!-- Node5&#45;&gt;Node3 -->
<g id="edge5_Node000005_Node000003" class="edge">
<title>Node5&#45;&gt;Node3</title>
<g id="a_edge5_Node000005_Node000003"><a xlink:title=" ">
<path fill="none" stroke="#63b8ff" d="M171.67,-54.75C171.67,-47.8 171.67,-37.85 171.67,-29.13"/>
<polygon fill="#63b8ff" stroke="#63b8ff" points="175.17,-29.09 171.67,-19.09 168.17,-29.09 175.17,-29.09"/>
</a>
</g>
</g>
<!-- Node6&#45;&gt;Node3 -->
<g id="edge7_Node000006_Node000003" class="edge">
<title>Node6&#45;&gt;Node3</title>
<g id="a_edge7_Node000006_Node000003"><a xlink:title=" ">
<path fill="none" stroke="#63b8ff" d="M253.09,-54.98C237.9,-46.69 214.57,-33.94 196.77,-24.22"/>
<polygon fill="#63b8ff" stroke="#63b8ff" points="197.99,-20.89 187.54,-19.17 194.64,-27.04 197.99,-20.89"/>
</a>
</g>
</g>
</g>
</svg>
